<?xml version="1.0" encoding="iso-8859-1"?>
<!-- Generator: Adobe Illustrator 19.0.0, SVG Export Plug-In . SVG Version: 6.00 Build 0)  -->
<svg version="1.1" id="Capa_1" xmlns="http://www.w3.org/2000/svg" xmlns:xlink="http://www.w3.org/1999/xlink" x="0px" y="0px"
	 viewBox="0 0 64 64" style="enable-background:new 0 0 64 64;" xml:space="preserve">
<g id="Jester_1_">
	<path id="Jester" d="M60.5,20.761c-1.21,0-2.278,0.618-2.907,1.555c-3.921-1.184-13.482-2.535-19.954,9.32
		c-3.224-7.261-1.619-11.465,0.374-16.685c0.055-0.145,0.112-0.296,0.167-0.442c0.728,0.756,1.745,1.231,2.875,1.231
		c2.206,0,4-1.794,4-4c0-2.206-1.794-4-4-4c-2.206,0-4,1.794-4,4c0,0.167,0.029,0.327,0.049,0.489
		c-7.937,0.865-12.745,7.761-13.092,18.465c-3.64-5.305-9.331-6.386-15.744-7.603c-0.435-0.083-0.882-0.169-1.327-0.255
		C6.973,22.647,7,22.457,7,22.261c0-1.93-1.57-3.5-3.5-3.5s-3.5,1.57-3.5,3.5c0,1.93,1.57,3.5,3.5,3.5
		c0.897,0,1.707-0.349,2.327-0.905c9.608,9.938,12.647,13.094,11.538,25.405h-0.031c-1.838,0-3.333,1.346-3.333,3s1.495,3,3.333,3
		h30.334c1.838,0,3.333-1.346,3.333-3s-1.495-3-3.333-3h-0.304c-2.948-10.248,0.186-18.216,9.827-24.913
		c0.46,1.396,1.762,2.413,3.31,2.413c1.93,0,3.5-1.57,3.5-3.5C64,22.331,62.43,20.761,60.5,20.761z M41.056,9.739
		c1.103,0,2,0.897,2,2c0,1.103-0.897,2-2,2s-2-0.897-2-2C39.056,10.636,39.953,9.739,41.056,9.739z M3.5,23.761
		c-0.827,0-1.5-0.673-1.5-1.5c0-0.827,0.673-1.5,1.5-1.5c0.827,0,1.5,0.673,1.5,1.5C5,23.088,4.327,23.761,3.5,23.761z
		 M44.308,43.261c-0.002,1.506,0.138,3.056,0.437,4.656l-4.614-4.656H44.308z M20.835,50.168l4.829-4.983l4.989,4.983H20.835z
		 M34.586,50.168l4.653-4.967l4.923,4.967H34.586z M32.637,49.324l-6.07-6.063h11.749L32.637,49.324z M19.483,48.691
		c0.124-2.023,0.12-3.813-0.016-5.43h5.277L19.483,48.691z M49,53.261c0,0.542-0.61,1-1.333,1H17.333c-0.723,0-1.333-0.458-1.333-1
		c0-0.542,0.61-1,1.333-1h30.334C48.39,52.261,49,52.719,49,53.261z M44.399,41.261H19.22c-1.015-5.995-4.247-9.782-10.219-15.995
		c7.2,1.383,12.42,2.705,15.17,10.128c0.173,0.467,0.661,0.736,1.149,0.63c0.487-0.105,0.821-0.553,0.785-1.05
		c-0.842-11.537,2.864-19.078,9.978-20.578c-2.212,5.795-4.067,10.85,0.647,19.958c0.175,0.339,0.561,0.559,0.908,0.541
		c0.381-0.008,0.725-0.232,0.886-0.577c5.168-11.08,12.773-11.416,17.235-10.424C48.783,28.828,45.026,34.573,44.399,41.261z
		 M60.5,25.761c-0.827,0-1.5-0.673-1.5-1.5c0-0.827,0.673-1.5,1.5-1.5c0.827,0,1.5,0.673,1.5,1.5
		C62,25.088,61.327,25.761,60.5,25.761z"/>
</g>
<g>
</g>
<g>
</g>
<g>
</g>
<g>
</g>
<g>
</g>
<g>
</g>
<g>
</g>
<g>
</g>
<g>
</g>
<g>
</g>
<g>
</g>
<g>
</g>
<g>
</g>
<g>
</g>
<g>
</g>
</svg>
